<mxfile host="app.diagrams.net" modified="2024-01-20T18:28:28.034Z" agent="Mozilla/5.0 (X11; Ubuntu; Linux x86_64; rv:121.0) Gecko/20100101 Firefox/121.0" etag="5LFzTbkkfLWwv2EMGWzb" version="22.1.21" type="device">
  <diagram name="PÃ¡gina-1" id="mZHHZyPJ2RjIk_b1Id-W">
    <mxGraphModel dx="1843" dy="857" grid="1" gridSize="10" guides="1" tooltips="1" connect="1" arrows="1" fold="1" page="1" pageScale="1" pageWidth="850" pageHeight="1100" math="0" shadow="0">
      <root>
        <mxCell id="0" />
        <mxCell id="1" parent="0" />
        <mxCell id="rA-35UFHGVOOynfBpTOh-1" value="&lt;b&gt;&lt;font style=&quot;font-size: 20px;&quot;&gt;User&lt;/font&gt;&lt;/b&gt;" style="swimlane;fontStyle=0;childLayout=stackLayout;horizontal=1;startSize=40;fillColor=none;horizontalStack=0;resizeParent=1;resizeParentMax=0;resizeLast=0;collapsible=1;marginBottom=0;whiteSpace=wrap;html=1;verticalAlign=middle;" vertex="1" parent="1">
          <mxGeometry x="40" y="40" width="240" height="250" as="geometry">
            <mxRectangle x="40" y="40" width="80" height="40" as="alternateBounds" />
          </mxGeometry>
        </mxCell>
        <mxCell id="rA-35UFHGVOOynfBpTOh-2" value="&lt;font style=&quot;font-size: 15px;&quot;&gt;+ _id: ObjectId&lt;/font&gt;" style="text;strokeColor=none;fillColor=none;align=left;verticalAlign=top;spacingLeft=4;spacingRight=4;overflow=hidden;rotatable=0;points=[[0,0.5],[1,0.5]];portConstraint=eastwest;whiteSpace=wrap;html=1;" vertex="1" parent="rA-35UFHGVOOynfBpTOh-1">
          <mxGeometry y="40" width="240" height="30" as="geometry" />
        </mxCell>
        <mxCell id="rA-35UFHGVOOynfBpTOh-3" value="&lt;div style=&quot;font-size: 15px;&quot;&gt;&lt;font style=&quot;font-size: 15px;&quot;&gt;+ username: String&lt;/font&gt;&lt;/div&gt;" style="text;strokeColor=none;fillColor=none;align=left;verticalAlign=top;spacingLeft=4;spacingRight=4;overflow=hidden;rotatable=0;points=[[0,0.5],[1,0.5]];portConstraint=eastwest;whiteSpace=wrap;html=1;" vertex="1" parent="rA-35UFHGVOOynfBpTOh-1">
          <mxGeometry y="70" width="240" height="30" as="geometry" />
        </mxCell>
        <mxCell id="rA-35UFHGVOOynfBpTOh-4" value="&lt;font style=&quot;font-size: 15px;&quot;&gt;+ password: String&lt;/font&gt;" style="text;strokeColor=none;fillColor=none;align=left;verticalAlign=top;spacingLeft=4;spacingRight=4;overflow=hidden;rotatable=0;points=[[0,0.5],[1,0.5]];portConstraint=eastwest;whiteSpace=wrap;html=1;" vertex="1" parent="rA-35UFHGVOOynfBpTOh-1">
          <mxGeometry y="100" width="240" height="30" as="geometry" />
        </mxCell>
        <mxCell id="rA-35UFHGVOOynfBpTOh-5" value="&lt;font style=&quot;font-size: 15px;&quot;&gt;+ studentClass: [ObjectId]&lt;/font&gt;" style="text;strokeColor=none;fillColor=none;align=left;verticalAlign=top;spacingLeft=4;spacingRight=4;overflow=hidden;rotatable=0;points=[[0,0.5],[1,0.5]];portConstraint=eastwest;whiteSpace=wrap;html=1;" vertex="1" parent="rA-35UFHGVOOynfBpTOh-1">
          <mxGeometry y="130" width="240" height="30" as="geometry" />
        </mxCell>
        <mxCell id="rA-35UFHGVOOynfBpTOh-6" value="&lt;font style=&quot;font-size: 15px;&quot;&gt;+ adminClass: [ObjectId]&lt;/font&gt;" style="text;strokeColor=none;fillColor=none;align=left;verticalAlign=top;spacingLeft=4;spacingRight=4;overflow=hidden;rotatable=0;points=[[0,0.5],[1,0.5]];portConstraint=eastwest;whiteSpace=wrap;html=1;" vertex="1" parent="rA-35UFHGVOOynfBpTOh-1">
          <mxGeometry y="160" width="240" height="30" as="geometry" />
        </mxCell>
        <mxCell id="rA-35UFHGVOOynfBpTOh-7" value="&lt;font style=&quot;font-size: 15px;&quot;&gt;+ taskCompleted: [ObjectId]&lt;/font&gt;" style="text;strokeColor=none;fillColor=none;align=left;verticalAlign=top;spacingLeft=4;spacingRight=4;overflow=hidden;rotatable=0;points=[[0,0.5],[1,0.5]];portConstraint=eastwest;whiteSpace=wrap;html=1;" vertex="1" parent="rA-35UFHGVOOynfBpTOh-1">
          <mxGeometry y="190" width="240" height="30" as="geometry" />
        </mxCell>
        <mxCell id="rA-35UFHGVOOynfBpTOh-8" value="&lt;font style=&quot;font-size: 15px;&quot;&gt;+ config: Object&lt;/font&gt;" style="text;strokeColor=none;fillColor=none;align=left;verticalAlign=top;spacingLeft=4;spacingRight=4;overflow=hidden;rotatable=0;points=[[0,0.5],[1,0.5]];portConstraint=eastwest;whiteSpace=wrap;html=1;" vertex="1" parent="rA-35UFHGVOOynfBpTOh-1">
          <mxGeometry y="220" width="240" height="30" as="geometry" />
        </mxCell>
        <mxCell id="rA-35UFHGVOOynfBpTOh-9" value="&lt;b&gt;&lt;font style=&quot;font-size: 20px;&quot;&gt;Class&lt;/font&gt;&lt;/b&gt;" style="swimlane;fontStyle=0;childLayout=stackLayout;horizontal=1;startSize=40;fillColor=none;horizontalStack=0;resizeParent=1;resizeParentMax=0;resizeLast=0;collapsible=1;marginBottom=0;whiteSpace=wrap;html=1;verticalAlign=middle;" vertex="1" parent="1">
          <mxGeometry x="320" y="40" width="240" height="310" as="geometry">
            <mxRectangle x="40" y="40" width="80" height="40" as="alternateBounds" />
          </mxGeometry>
        </mxCell>
        <mxCell id="rA-35UFHGVOOynfBpTOh-10" value="&lt;font style=&quot;font-size: 15px;&quot;&gt;+ _id: ObjectId&lt;/font&gt;" style="text;strokeColor=none;fillColor=none;align=left;verticalAlign=top;spacingLeft=4;spacingRight=4;overflow=hidden;rotatable=0;points=[[0,0.5],[1,0.5]];portConstraint=eastwest;whiteSpace=wrap;html=1;" vertex="1" parent="rA-35UFHGVOOynfBpTOh-9">
          <mxGeometry y="40" width="240" height="30" as="geometry" />
        </mxCell>
        <mxCell id="rA-35UFHGVOOynfBpTOh-11" value="&lt;div style=&quot;font-size: 15px;&quot;&gt;&lt;font style=&quot;font-size: 15px;&quot;&gt;+ classCode: String&lt;/font&gt;&lt;/div&gt;" style="text;strokeColor=none;fillColor=none;align=left;verticalAlign=top;spacingLeft=4;spacingRight=4;overflow=hidden;rotatable=0;points=[[0,0.5],[1,0.5]];portConstraint=eastwest;whiteSpace=wrap;html=1;" vertex="1" parent="rA-35UFHGVOOynfBpTOh-9">
          <mxGeometry y="70" width="240" height="30" as="geometry" />
        </mxCell>
        <mxCell id="rA-35UFHGVOOynfBpTOh-12" value="&lt;font style=&quot;font-size: 15px;&quot;&gt;+ password: String&lt;/font&gt;" style="text;strokeColor=none;fillColor=none;align=left;verticalAlign=top;spacingLeft=4;spacingRight=4;overflow=hidden;rotatable=0;points=[[0,0.5],[1,0.5]];portConstraint=eastwest;whiteSpace=wrap;html=1;" vertex="1" parent="rA-35UFHGVOOynfBpTOh-9">
          <mxGeometry y="100" width="240" height="30" as="geometry" />
        </mxCell>
        <mxCell id="rA-35UFHGVOOynfBpTOh-13" value="&lt;font style=&quot;font-size: 15px;&quot;&gt;+ schedule: ObjectId&lt;/font&gt;" style="text;strokeColor=none;fillColor=none;align=left;verticalAlign=top;spacingLeft=4;spacingRight=4;overflow=hidden;rotatable=0;points=[[0,0.5],[1,0.5]];portConstraint=eastwest;whiteSpace=wrap;html=1;" vertex="1" parent="rA-35UFHGVOOynfBpTOh-9">
          <mxGeometry y="130" width="240" height="30" as="geometry" />
        </mxCell>
        <mxCell id="rA-35UFHGVOOynfBpTOh-14" value="&lt;font style=&quot;font-size: 15px;&quot;&gt;+ students: [ObjectId]&lt;/font&gt;" style="text;strokeColor=none;fillColor=none;align=left;verticalAlign=top;spacingLeft=4;spacingRight=4;overflow=hidden;rotatable=0;points=[[0,0.5],[1,0.5]];portConstraint=eastwest;whiteSpace=wrap;html=1;" vertex="1" parent="rA-35UFHGVOOynfBpTOh-9">
          <mxGeometry y="160" width="240" height="30" as="geometry" />
        </mxCell>
        <mxCell id="rA-35UFHGVOOynfBpTOh-15" value="&lt;font style=&quot;font-size: 15px;&quot;&gt;+ admins: [ObjectId]&lt;/font&gt;" style="text;strokeColor=none;fillColor=none;align=left;verticalAlign=top;spacingLeft=4;spacingRight=4;overflow=hidden;rotatable=0;points=[[0,0.5],[1,0.5]];portConstraint=eastwest;whiteSpace=wrap;html=1;" vertex="1" parent="rA-35UFHGVOOynfBpTOh-9">
          <mxGeometry y="190" width="240" height="30" as="geometry" />
        </mxCell>
        <mxCell id="rA-35UFHGVOOynfBpTOh-16" value="&lt;font style=&quot;font-size: 15px;&quot;&gt;+ subjects: [&lt;/font&gt;&lt;font style=&quot;font-size: 15px;&quot;&gt;ObjectId&lt;/font&gt;&lt;font style=&quot;font-size: 15px;&quot;&gt;]&lt;br&gt;&lt;/font&gt;" style="text;strokeColor=none;fillColor=none;align=left;verticalAlign=top;spacingLeft=4;spacingRight=4;overflow=hidden;rotatable=0;points=[[0,0.5],[1,0.5]];portConstraint=eastwest;whiteSpace=wrap;html=1;" vertex="1" parent="rA-35UFHGVOOynfBpTOh-9">
          <mxGeometry y="220" width="240" height="30" as="geometry" />
        </mxCell>
        <mxCell id="rA-35UFHGVOOynfBpTOh-17" value="&lt;font style=&quot;font-size: 15px;&quot;&gt;+ tasks: [&lt;/font&gt;&lt;font style=&quot;font-size: 15px;&quot;&gt;ObjectId&lt;/font&gt;&lt;font style=&quot;font-size: 15px;&quot;&gt;]&lt;br&gt;&lt;/font&gt;" style="text;strokeColor=none;fillColor=none;align=left;verticalAlign=top;spacingLeft=4;spacingRight=4;overflow=hidden;rotatable=0;points=[[0,0.5],[1,0.5]];portConstraint=eastwest;whiteSpace=wrap;html=1;" vertex="1" parent="rA-35UFHGVOOynfBpTOh-9">
          <mxGeometry y="250" width="240" height="30" as="geometry" />
        </mxCell>
        <mxCell id="rA-35UFHGVOOynfBpTOh-18" value="&lt;font style=&quot;font-size: 15px;&quot;&gt;+ sessions: [&lt;/font&gt;&lt;font style=&quot;font-size: 15px;&quot;&gt;ObjectId&lt;/font&gt;&lt;font style=&quot;font-size: 15px;&quot;&gt;]&lt;br&gt;&lt;/font&gt;" style="text;strokeColor=none;fillColor=none;align=left;verticalAlign=top;spacingLeft=4;spacingRight=4;overflow=hidden;rotatable=0;points=[[0,0.5],[1,0.5]];portConstraint=eastwest;whiteSpace=wrap;html=1;" vertex="1" parent="rA-35UFHGVOOynfBpTOh-9">
          <mxGeometry y="280" width="240" height="30" as="geometry" />
        </mxCell>
        <mxCell id="rA-35UFHGVOOynfBpTOh-19" value="&lt;b&gt;&lt;font style=&quot;font-size: 20px;&quot;&gt;Subject&lt;/font&gt;&lt;/b&gt;" style="swimlane;fontStyle=0;childLayout=stackLayout;horizontal=1;startSize=40;fillColor=none;horizontalStack=0;resizeParent=1;resizeParentMax=0;resizeLast=0;collapsible=1;marginBottom=0;whiteSpace=wrap;html=1;verticalAlign=middle;" vertex="1" parent="1">
          <mxGeometry x="600" y="350" width="240" height="160" as="geometry">
            <mxRectangle x="40" y="40" width="80" height="40" as="alternateBounds" />
          </mxGeometry>
        </mxCell>
        <mxCell id="rA-35UFHGVOOynfBpTOh-20" value="&lt;font style=&quot;font-size: 15px;&quot;&gt;+ _id: ObjectId&lt;/font&gt;" style="text;strokeColor=none;fillColor=none;align=left;verticalAlign=top;spacingLeft=4;spacingRight=4;overflow=hidden;rotatable=0;points=[[0,0.5],[1,0.5]];portConstraint=eastwest;whiteSpace=wrap;html=1;" vertex="1" parent="rA-35UFHGVOOynfBpTOh-19">
          <mxGeometry y="40" width="240" height="30" as="geometry" />
        </mxCell>
        <mxCell id="rA-35UFHGVOOynfBpTOh-21" value="&lt;div style=&quot;font-size: 15px;&quot;&gt;&lt;font style=&quot;font-size: 15px;&quot;&gt;+ classID: ObjectId&lt;/font&gt;&lt;/div&gt;" style="text;strokeColor=none;fillColor=none;align=left;verticalAlign=top;spacingLeft=4;spacingRight=4;overflow=hidden;rotatable=0;points=[[0,0.5],[1,0.5]];portConstraint=eastwest;whiteSpace=wrap;html=1;" vertex="1" parent="rA-35UFHGVOOynfBpTOh-19">
          <mxGeometry y="70" width="240" height="30" as="geometry" />
        </mxCell>
        <mxCell id="rA-35UFHGVOOynfBpTOh-22" value="&lt;font style=&quot;font-size: 15px;&quot;&gt;+ teacher: String&lt;/font&gt;" style="text;strokeColor=none;fillColor=none;align=left;verticalAlign=top;spacingLeft=4;spacingRight=4;overflow=hidden;rotatable=0;points=[[0,0.5],[1,0.5]];portConstraint=eastwest;whiteSpace=wrap;html=1;" vertex="1" parent="rA-35UFHGVOOynfBpTOh-19">
          <mxGeometry y="100" width="240" height="30" as="geometry" />
        </mxCell>
        <mxCell id="rA-35UFHGVOOynfBpTOh-23" value="&lt;font style=&quot;font-size: 15px;&quot;&gt;+ subject: String&lt;/font&gt;" style="text;strokeColor=none;fillColor=none;align=left;verticalAlign=top;spacingLeft=4;spacingRight=4;overflow=hidden;rotatable=0;points=[[0,0.5],[1,0.5]];portConstraint=eastwest;whiteSpace=wrap;html=1;" vertex="1" parent="rA-35UFHGVOOynfBpTOh-19">
          <mxGeometry y="130" width="240" height="30" as="geometry" />
        </mxCell>
        <mxCell id="rA-35UFHGVOOynfBpTOh-29" value="&lt;b&gt;&lt;font style=&quot;font-size: 20px;&quot;&gt;Task&lt;/font&gt;&lt;/b&gt;" style="swimlane;fontStyle=0;childLayout=stackLayout;horizontal=1;startSize=40;fillColor=none;horizontalStack=0;resizeParent=1;resizeParentMax=0;resizeLast=0;collapsible=1;marginBottom=0;whiteSpace=wrap;html=1;verticalAlign=middle;" vertex="1" parent="1">
          <mxGeometry x="600" y="40" width="240" height="280" as="geometry">
            <mxRectangle x="40" y="40" width="80" height="40" as="alternateBounds" />
          </mxGeometry>
        </mxCell>
        <mxCell id="rA-35UFHGVOOynfBpTOh-30" value="&lt;font style=&quot;font-size: 15px;&quot;&gt;+ _id: ObjectId&lt;/font&gt;" style="text;strokeColor=none;fillColor=none;align=left;verticalAlign=top;spacingLeft=4;spacingRight=4;overflow=hidden;rotatable=0;points=[[0,0.5],[1,0.5]];portConstraint=eastwest;whiteSpace=wrap;html=1;" vertex="1" parent="rA-35UFHGVOOynfBpTOh-29">
          <mxGeometry y="40" width="240" height="30" as="geometry" />
        </mxCell>
        <mxCell id="rA-35UFHGVOOynfBpTOh-31" value="&lt;div style=&quot;font-size: 15px;&quot;&gt;&lt;font style=&quot;font-size: 15px;&quot;&gt;+ classID: ObjectId&lt;/font&gt;&lt;/div&gt;" style="text;strokeColor=none;fillColor=none;align=left;verticalAlign=top;spacingLeft=4;spacingRight=4;overflow=hidden;rotatable=0;points=[[0,0.5],[1,0.5]];portConstraint=eastwest;whiteSpace=wrap;html=1;" vertex="1" parent="rA-35UFHGVOOynfBpTOh-29">
          <mxGeometry y="70" width="240" height="30" as="geometry" />
        </mxCell>
        <mxCell id="rA-35UFHGVOOynfBpTOh-32" value="&lt;font style=&quot;font-size: 15px;&quot;&gt;+ subject: ObjectId&lt;/font&gt;" style="text;strokeColor=none;fillColor=none;align=left;verticalAlign=top;spacingLeft=4;spacingRight=4;overflow=hidden;rotatable=0;points=[[0,0.5],[1,0.5]];portConstraint=eastwest;whiteSpace=wrap;html=1;" vertex="1" parent="rA-35UFHGVOOynfBpTOh-29">
          <mxGeometry y="100" width="240" height="30" as="geometry" />
        </mxCell>
        <mxCell id="rA-35UFHGVOOynfBpTOh-33" value="&lt;font style=&quot;font-size: 15px;&quot;&gt;+ deadline: Date&lt;/font&gt;" style="text;strokeColor=none;fillColor=none;align=left;verticalAlign=top;spacingLeft=4;spacingRight=4;overflow=hidden;rotatable=0;points=[[0,0.5],[1,0.5]];portConstraint=eastwest;whiteSpace=wrap;html=1;" vertex="1" parent="rA-35UFHGVOOynfBpTOh-29">
          <mxGeometry y="130" width="240" height="30" as="geometry" />
        </mxCell>
        <mxCell id="rA-35UFHGVOOynfBpTOh-34" value="&lt;font style=&quot;font-size: 15px;&quot;&gt;+ openDate: Date&lt;/font&gt;" style="text;strokeColor=none;fillColor=none;align=left;verticalAlign=top;spacingLeft=4;spacingRight=4;overflow=hidden;rotatable=0;points=[[0,0.5],[1,0.5]];portConstraint=eastwest;whiteSpace=wrap;html=1;" vertex="1" parent="rA-35UFHGVOOynfBpTOh-29">
          <mxGeometry y="160" width="240" height="30" as="geometry" />
        </mxCell>
        <mxCell id="rA-35UFHGVOOynfBpTOh-35" value="&lt;font style=&quot;font-size: 15px;&quot;&gt;+ taskName: String&lt;/font&gt;" style="text;strokeColor=none;fillColor=none;align=left;verticalAlign=top;spacingLeft=4;spacingRight=4;overflow=hidden;rotatable=0;points=[[0,0.5],[1,0.5]];portConstraint=eastwest;whiteSpace=wrap;html=1;" vertex="1" parent="rA-35UFHGVOOynfBpTOh-29">
          <mxGeometry y="190" width="240" height="30" as="geometry" />
        </mxCell>
        <mxCell id="rA-35UFHGVOOynfBpTOh-36" value="&lt;font style=&quot;font-size: 15px;&quot;&gt;+ taskDescription: String&lt;/font&gt;&lt;font style=&quot;font-size: 15px;&quot;&gt;&lt;br&gt;&lt;/font&gt;" style="text;strokeColor=none;fillColor=none;align=left;verticalAlign=top;spacingLeft=4;spacingRight=4;overflow=hidden;rotatable=0;points=[[0,0.5],[1,0.5]];portConstraint=eastwest;whiteSpace=wrap;html=1;" vertex="1" parent="rA-35UFHGVOOynfBpTOh-29">
          <mxGeometry y="220" width="240" height="30" as="geometry" />
        </mxCell>
        <mxCell id="rA-35UFHGVOOynfBpTOh-37" value="&lt;font style=&quot;font-size: 15px;&quot;&gt;+ links: [String&lt;/font&gt;&lt;font style=&quot;font-size: 15px;&quot;&gt;]&lt;br&gt;&lt;/font&gt;" style="text;strokeColor=none;fillColor=none;align=left;verticalAlign=top;spacingLeft=4;spacingRight=4;overflow=hidden;rotatable=0;points=[[0,0.5],[1,0.5]];portConstraint=eastwest;whiteSpace=wrap;html=1;" vertex="1" parent="rA-35UFHGVOOynfBpTOh-29">
          <mxGeometry y="250" width="240" height="30" as="geometry" />
        </mxCell>
        <mxCell id="rA-35UFHGVOOynfBpTOh-39" value="&lt;b&gt;&lt;font style=&quot;font-size: 20px;&quot;&gt;Schedule&lt;/font&gt;&lt;/b&gt;" style="swimlane;fontStyle=0;childLayout=stackLayout;horizontal=1;startSize=40;fillColor=none;horizontalStack=0;resizeParent=1;resizeParentMax=0;resizeLast=0;collapsible=1;marginBottom=0;whiteSpace=wrap;html=1;verticalAlign=middle;" vertex="1" parent="1">
          <mxGeometry x="600" y="530" width="240" height="310" as="geometry">
            <mxRectangle x="40" y="40" width="80" height="40" as="alternateBounds" />
          </mxGeometry>
        </mxCell>
        <mxCell id="rA-35UFHGVOOynfBpTOh-40" value="&lt;font style=&quot;font-size: 15px;&quot;&gt;+ _id: ObjectId&lt;/font&gt;" style="text;strokeColor=none;fillColor=none;align=left;verticalAlign=top;spacingLeft=4;spacingRight=4;overflow=hidden;rotatable=0;points=[[0,0.5],[1,0.5]];portConstraint=eastwest;whiteSpace=wrap;html=1;" vertex="1" parent="rA-35UFHGVOOynfBpTOh-39">
          <mxGeometry y="40" width="240" height="30" as="geometry" />
        </mxCell>
        <mxCell id="rA-35UFHGVOOynfBpTOh-41" value="&lt;div style=&quot;font-size: 15px;&quot;&gt;&lt;font style=&quot;font-size: 15px;&quot;&gt;+ classID: ObjectId&lt;/font&gt;&lt;/div&gt;" style="text;strokeColor=none;fillColor=none;align=left;verticalAlign=top;spacingLeft=4;spacingRight=4;overflow=hidden;rotatable=0;points=[[0,0.5],[1,0.5]];portConstraint=eastwest;whiteSpace=wrap;html=1;" vertex="1" parent="rA-35UFHGVOOynfBpTOh-39">
          <mxGeometry y="70" width="240" height="30" as="geometry" />
        </mxCell>
        <mxCell id="rA-35UFHGVOOynfBpTOh-42" value="&lt;font style=&quot;font-size: 15px;&quot;&gt;+ monday: [ObjectId]&lt;/font&gt;" style="text;strokeColor=none;fillColor=none;align=left;verticalAlign=top;spacingLeft=4;spacingRight=4;overflow=hidden;rotatable=0;points=[[0,0.5],[1,0.5]];portConstraint=eastwest;whiteSpace=wrap;html=1;" vertex="1" parent="rA-35UFHGVOOynfBpTOh-39">
          <mxGeometry y="100" width="240" height="30" as="geometry" />
        </mxCell>
        <mxCell id="rA-35UFHGVOOynfBpTOh-47" value="&lt;font style=&quot;font-size: 15px;&quot;&gt;+ tuesday: &lt;/font&gt;&lt;font style=&quot;font-size: 15px;&quot;&gt;[ObjectId]&lt;/font&gt;" style="text;strokeColor=none;fillColor=none;align=left;verticalAlign=top;spacingLeft=4;spacingRight=4;overflow=hidden;rotatable=0;points=[[0,0.5],[1,0.5]];portConstraint=eastwest;whiteSpace=wrap;html=1;" vertex="1" parent="rA-35UFHGVOOynfBpTOh-39">
          <mxGeometry y="130" width="240" height="30" as="geometry" />
        </mxCell>
        <mxCell id="rA-35UFHGVOOynfBpTOh-44" value="&lt;font style=&quot;font-size: 15px;&quot;&gt;+ wednesday: &lt;/font&gt;&lt;font style=&quot;font-size: 15px;&quot;&gt;[ObjectId]&lt;/font&gt;" style="text;strokeColor=none;fillColor=none;align=left;verticalAlign=top;spacingLeft=4;spacingRight=4;overflow=hidden;rotatable=0;points=[[0,0.5],[1,0.5]];portConstraint=eastwest;whiteSpace=wrap;html=1;" vertex="1" parent="rA-35UFHGVOOynfBpTOh-39">
          <mxGeometry y="160" width="240" height="30" as="geometry" />
        </mxCell>
        <mxCell id="rA-35UFHGVOOynfBpTOh-46" value="&lt;font style=&quot;font-size: 15px;&quot;&gt;+ thursday: &lt;/font&gt;&lt;font style=&quot;font-size: 15px;&quot;&gt;[ObjectId]&lt;/font&gt;" style="text;strokeColor=none;fillColor=none;align=left;verticalAlign=top;spacingLeft=4;spacingRight=4;overflow=hidden;rotatable=0;points=[[0,0.5],[1,0.5]];portConstraint=eastwest;whiteSpace=wrap;html=1;" vertex="1" parent="rA-35UFHGVOOynfBpTOh-39">
          <mxGeometry y="190" width="240" height="30" as="geometry" />
        </mxCell>
        <mxCell id="rA-35UFHGVOOynfBpTOh-45" value="&lt;font style=&quot;font-size: 15px;&quot;&gt;+ friday: &lt;/font&gt;&lt;font style=&quot;font-size: 15px;&quot;&gt;[ObjectId]&lt;/font&gt;" style="text;strokeColor=none;fillColor=none;align=left;verticalAlign=top;spacingLeft=4;spacingRight=4;overflow=hidden;rotatable=0;points=[[0,0.5],[1,0.5]];portConstraint=eastwest;whiteSpace=wrap;html=1;" vertex="1" parent="rA-35UFHGVOOynfBpTOh-39">
          <mxGeometry y="220" width="240" height="30" as="geometry" />
        </mxCell>
        <mxCell id="rA-35UFHGVOOynfBpTOh-48" value="&lt;font style=&quot;font-size: 15px;&quot;&gt;+ saturday: &lt;/font&gt;&lt;font style=&quot;font-size: 15px;&quot;&gt;[ObjectId]&lt;/font&gt;" style="text;strokeColor=none;fillColor=none;align=left;verticalAlign=top;spacingLeft=4;spacingRight=4;overflow=hidden;rotatable=0;points=[[0,0.5],[1,0.5]];portConstraint=eastwest;whiteSpace=wrap;html=1;" vertex="1" parent="rA-35UFHGVOOynfBpTOh-39">
          <mxGeometry y="250" width="240" height="30" as="geometry" />
        </mxCell>
        <mxCell id="rA-35UFHGVOOynfBpTOh-43" value="&lt;font style=&quot;font-size: 15px;&quot;&gt;+ sunday: &lt;/font&gt;&lt;font style=&quot;font-size: 15px;&quot;&gt;[ObjectId]&lt;/font&gt;" style="text;strokeColor=none;fillColor=none;align=left;verticalAlign=top;spacingLeft=4;spacingRight=4;overflow=hidden;rotatable=0;points=[[0,0.5],[1,0.5]];portConstraint=eastwest;whiteSpace=wrap;html=1;" vertex="1" parent="rA-35UFHGVOOynfBpTOh-39">
          <mxGeometry y="280" width="240" height="30" as="geometry" />
        </mxCell>
        <mxCell id="rA-35UFHGVOOynfBpTOh-49" value="&lt;b&gt;&lt;font style=&quot;font-size: 20px;&quot;&gt;Session&lt;/font&gt;&lt;/b&gt;" style="swimlane;fontStyle=0;childLayout=stackLayout;horizontal=1;startSize=40;fillColor=none;horizontalStack=0;resizeParent=1;resizeParentMax=0;resizeLast=0;collapsible=1;marginBottom=0;whiteSpace=wrap;html=1;verticalAlign=middle;" vertex="1" parent="1">
          <mxGeometry x="340" y="530" width="240" height="250" as="geometry">
            <mxRectangle x="40" y="40" width="80" height="40" as="alternateBounds" />
          </mxGeometry>
        </mxCell>
        <mxCell id="rA-35UFHGVOOynfBpTOh-50" value="&lt;font style=&quot;font-size: 15px;&quot;&gt;+ _id: ObjectId&lt;/font&gt;" style="text;strokeColor=none;fillColor=none;align=left;verticalAlign=top;spacingLeft=4;spacingRight=4;overflow=hidden;rotatable=0;points=[[0,0.5],[1,0.5]];portConstraint=eastwest;whiteSpace=wrap;html=1;" vertex="1" parent="rA-35UFHGVOOynfBpTOh-49">
          <mxGeometry y="40" width="240" height="30" as="geometry" />
        </mxCell>
        <mxCell id="rA-35UFHGVOOynfBpTOh-51" value="&lt;div style=&quot;font-size: 15px;&quot;&gt;&lt;font style=&quot;font-size: 15px;&quot;&gt;+ classID: ObjectId&lt;/font&gt;&lt;/div&gt;" style="text;strokeColor=none;fillColor=none;align=left;verticalAlign=top;spacingLeft=4;spacingRight=4;overflow=hidden;rotatable=0;points=[[0,0.5],[1,0.5]];portConstraint=eastwest;whiteSpace=wrap;html=1;" vertex="1" parent="rA-35UFHGVOOynfBpTOh-49">
          <mxGeometry y="70" width="240" height="30" as="geometry" />
        </mxCell>
        <mxCell id="rA-35UFHGVOOynfBpTOh-55" value="&lt;div style=&quot;font-size: 15px;&quot;&gt;&lt;font style=&quot;font-size: 15px;&quot;&gt;+ subject: ObjectId&lt;/font&gt;&lt;/div&gt;" style="text;strokeColor=none;fillColor=none;align=left;verticalAlign=top;spacingLeft=4;spacingRight=4;overflow=hidden;rotatable=0;points=[[0,0.5],[1,0.5]];portConstraint=eastwest;whiteSpace=wrap;html=1;" vertex="1" parent="rA-35UFHGVOOynfBpTOh-49">
          <mxGeometry y="100" width="240" height="30" as="geometry" />
        </mxCell>
        <mxCell id="rA-35UFHGVOOynfBpTOh-52" value="&lt;font style=&quot;font-size: 15px;&quot;&gt;+ starts: Date&lt;/font&gt;" style="text;strokeColor=none;fillColor=none;align=left;verticalAlign=top;spacingLeft=4;spacingRight=4;overflow=hidden;rotatable=0;points=[[0,0.5],[1,0.5]];portConstraint=eastwest;whiteSpace=wrap;html=1;" vertex="1" parent="rA-35UFHGVOOynfBpTOh-49">
          <mxGeometry y="130" width="240" height="30" as="geometry" />
        </mxCell>
        <mxCell id="rA-35UFHGVOOynfBpTOh-53" value="&lt;font style=&quot;font-size: 15px;&quot;&gt;+ ends: Date&lt;/font&gt;" style="text;strokeColor=none;fillColor=none;align=left;verticalAlign=top;spacingLeft=4;spacingRight=4;overflow=hidden;rotatable=0;points=[[0,0.5],[1,0.5]];portConstraint=eastwest;whiteSpace=wrap;html=1;" vertex="1" parent="rA-35UFHGVOOynfBpTOh-49">
          <mxGeometry y="160" width="240" height="30" as="geometry" />
        </mxCell>
        <mxCell id="rA-35UFHGVOOynfBpTOh-56" value="&lt;font style=&quot;font-size: 15px;&quot;&gt;+ classroom: String&lt;/font&gt;" style="text;strokeColor=none;fillColor=none;align=left;verticalAlign=top;spacingLeft=4;spacingRight=4;overflow=hidden;rotatable=0;points=[[0,0.5],[1,0.5]];portConstraint=eastwest;whiteSpace=wrap;html=1;" vertex="1" parent="rA-35UFHGVOOynfBpTOh-49">
          <mxGeometry y="190" width="240" height="30" as="geometry" />
        </mxCell>
        <mxCell id="rA-35UFHGVOOynfBpTOh-54" value="&lt;font style=&quot;font-size: 15px;&quot;&gt;+ links: [String]&lt;/font&gt;" style="text;strokeColor=none;fillColor=none;align=left;verticalAlign=top;spacingLeft=4;spacingRight=4;overflow=hidden;rotatable=0;points=[[0,0.5],[1,0.5]];portConstraint=eastwest;whiteSpace=wrap;html=1;" vertex="1" parent="rA-35UFHGVOOynfBpTOh-49">
          <mxGeometry y="220" width="240" height="30" as="geometry" />
        </mxCell>
      </root>
    </mxGraphModel>
  </diagram>
</mxfile>
